# xmcd
#
# Track frame offsets: 
#        150
#        11959
#        32019
#        50345
#        72443
#        86578
#        102021
#        116393
#        131347
#        146218
#        166660
#        182351
#        191891
#        212022
#        234021
#        247437
#        265848
#        286179
#
# Disc length: 4084 seconds
#
# Revision: 0
# Processed by: cddbd v1.5.2PL0 Copyright (c) Steve Scherf et al.
# Submitted via: ExactAudioCopyFreeDBPlugin 1.0
#
DISCID=fb0ff212
DTITLE=Asek - Chaos in der Loge
DYEAR=2007
DGENRE=Rap
TTITLE0=Ich bin
TTITLE1=Im Schatten des Lichts feat. MOK
TTITLE2=Staub zu Staub
TTITLE3=Rapper werden nervös feat. Die Schläfer
TTITLE4=Erzähl mir nix feat. Megaloh and Chefkoch
TTITLE5=Kinder der Strasse feat. Godsilla
TTITLE6=Bist du stolz feat. Chefkoch
TTITLE7=Unterschicht
TTITLE8=Septemberkind
TTITLE9=Ohne dich feat. Bektas, Tiersta and Nastia
TTITLE10=Asek ist zurück
TTITLE11=Keine Konkurrenz
TTITLE12=Du sagst es gibt kein Ghetto
TTITLE13=Jeder Tag könnte der letzte sein
TTITLE14=Hass feat. Chefkoch
TTITLE15=Kanaken Muzik feat. Zaza and Ers
TTITLE16=Was soll ich machen feat. Jolez-Bo
TTITLE17=Wir kommen nochma feat. Fauzy Faust
EXTD=
EXTT0=
EXTT1=
EXTT2=
EXTT3=
EXTT4=
EXTT5=
EXTT6=
EXTT7=
EXTT8=
EXTT9=
EXTT10=
EXTT11=
EXTT12=
EXTT13=
EXTT14=
EXTT15=
EXTT16=
EXTT17=
PLAYORDER=
